# Blender v2.83.2 OBJ File: 'CornellBox.blend'
# www.blender.org
mtllib Cornell box.mtl
o Cube.001_Cube.002
v -0.550451 0.154674 0.474736
v -0.732295 0.801040 -1.097978
v -0.550451 0.154674 -1.097978
v -0.732295 0.801040 0.474736
v -0.085929 0.982884 -1.097978
v -0.085929 0.982884 0.474736
v 0.095915 0.336518 -1.097978
v 0.095915 0.336518 0.474736
v 1.000000 1.000000 -1.000000
v -1.000000 1.000000 1.000000
v -1.000000 1.000000 -1.000000
v -1.000000 -1.000000 -1.000000
v 1.000000 -1.000000 1.000000
v 1.000000 1.000000 1.000000
v -0.031790 -0.412711 -0.443901
v 0.206109 0.113640 -1.021517
v -0.031790 -0.412711 -1.021517
v 0.206109 0.113640 -0.443901
v 0.732460 -0.124260 -1.021517
v 0.732460 -0.124260 -0.443901
v 0.494561 -0.650611 -1.021517
v 0.494561 -0.650611 -0.443901
v 1.000000 -1.000000 -1.000000
v -1.000000 -1.000000 1.000000
v -0.186418 0.297231 0.983449
v 0.207848 -0.097035 0.983449
v -0.186418 -0.097035 0.983449
v 0.207848 0.297231 0.983449
vt 0.625000 0.000000
vt 0.375000 0.250000
vt 0.375000 0.000000
vt 0.625000 0.250000
vt 0.375000 0.500000
vt 0.625000 0.500000
vt 0.375000 0.750000
vt 0.625000 0.750000
vt 0.375000 1.000000
vt 0.125000 0.750000
vt 0.125000 0.500000
vt 0.875000 0.500000
vt 0.375000 0.500000
vt 0.625000 0.250000
vt 0.375000 0.250000
vt 0.125000 0.750000
vt 0.125000 0.500000
vt 0.625000 0.750000
vt 0.875000 0.500000
vt 0.625000 0.500000
vt 0.625000 0.000000
vt 0.375000 0.250000
vt 0.375000 0.000000
vt 0.625000 0.250000
vt 0.375000 0.500000
vt 0.625000 0.500000
vt 0.375000 0.750000
vt 0.625000 0.750000
vt 0.375000 1.000000
vt 0.125000 0.750000
vt 0.125000 0.500000
vt 0.875000 0.500000
vt 0.625000 1.000000
vt 0.875000 0.750000
vt 0.375000 0.750000
vt 0.875000 0.750000
vt 0.625000 1.000000
vt 0.875000 0.750000
vt 0.625000 0.000000
vt 0.375000 0.000000
vt 0.000000 1.000000
vt 1.000000 0.000000
vt 0.000000 0.000000
vt 1.000000 1.000000
vn -0.9626 -0.2708 -0.0000
vn -0.2708 0.9626 0.0000
vn 0.9626 0.2708 0.0000
vn 0.2708 -0.9626 0.0000
vn 0.0000 0.0000 -1.0000
vn -0.0000 -0.0000 1.0000
vn 0.0000 -1.0000 0.0000
vn -0.9112 0.4119 -0.0000
vn 0.4119 0.9112 0.0000
vn 0.9112 -0.4119 0.0000
vn -0.4119 -0.9112 -0.0000
vn 1.0000 0.0000 0.0000
vn -1.0000 0.0000 -0.0000
usemtl White
s 1
f 1/1/1 2/2/1 3/3/1
f 4/4/2 5/5/2 2/2/2
f 6/6/3 7/7/3 5/5/3
f 8/8/4 3/9/4 7/7/4
f 5/5/5 3/10/5 2/11/5
f 4/12/6 8/8/6 6/6/6
f 9/13/7 10/14/7 11/15/7
f 12/16/6 9/13/6 11/17/6
f 13/18/5 10/19/5 14/20/5
f 15/21/8 16/22/8 17/23/8
f 18/24/9 19/25/9 16/22/9
f 20/26/10 21/27/10 19/25/10
f 22/28/11 17/29/11 21/27/11
f 19/25/5 17/30/5 16/31/5
f 18/32/6 22/28/6 20/26/6
f 1/1/1 4/4/1 2/2/1
f 4/4/2 6/6/2 5/5/2
f 6/6/3 8/8/3 7/7/3
f 8/8/4 1/33/4 3/9/4
f 5/5/5 7/7/5 3/10/5
f 4/12/6 1/34/6 8/8/6
f 9/13/7 14/20/7 10/14/7
f 12/16/6 23/35/6 9/13/6
f 13/18/5 24/36/5 10/19/5
f 15/21/8 18/24/8 16/22/8
f 18/24/9 20/26/9 19/25/9
f 20/26/10 22/28/10 21/27/10
f 22/28/11 15/37/11 17/29/11
f 19/25/5 21/27/5 17/30/5
f 18/32/6 15/38/6 22/28/6
usemtl Red
f 11/15/12 24/39/12 12/40/12
f 11/15/12 10/14/12 24/39/12
usemtl Green
f 23/35/13 14/20/13 9/13/13
f 23/35/13 13/18/13 14/20/13
usemtl light
f 25/41/5 26/42/5 27/43/5
f 25/41/5 28/44/5 26/42/5
