# Blender v2.80 (sub 75) OBJ File: 'Cornell box.blend'
# www.blender.org
mtllib Cornell box.mtl
o Cube.001_Cube.002
v 0.749868 0.054576 -0.561166
v -0.822846 0.054576 -0.561166
v 0.749868 0.700942 -0.743010
v 0.749868 0.236420 0.085200
v 0.749868 0.882786 -0.096644
v -0.822846 0.882786 -0.096644
v -0.822846 0.700942 -0.743010
v -0.822846 0.236420 0.085200
v 0.651890 -1.100098 -1.010715
v -1.348110 -1.100098 -1.010715
v 0.651890 0.899902 -1.010715
v -1.348110 0.899902 -1.010715
v 0.651890 -1.100098 0.989285
v -1.348110 -1.100098 0.989285
v 0.651890 0.899902 0.989285
v -1.348110 0.899902 0.989285
v 0.673407 -0.512809 -0.042505
v 0.095791 -0.512809 -0.042505
v 0.673407 0.013542 0.195394
v 0.095791 0.013542 0.195394
v 0.673407 -0.750709 0.483846
v 0.095791 -0.750709 0.483846
v 0.673407 -0.224358 0.721745
v 0.095791 -0.224358 0.721745
v -1.331559 -0.197133 -0.197133
v -1.331559 -0.197133 0.197133
v -1.331559 0.197133 -0.197133
v -1.331559 0.197133 0.197133
vt 0.625000 0.000000
vt 0.375000 0.250000
vt 0.375000 0.000000
vt 0.625000 0.250000
vt 0.375000 0.500000
vt 0.625000 0.500000
vt 0.375000 0.750000
vt 0.625000 0.750000
vt 0.375000 1.000000
vt 0.125000 0.750000
vt 0.125000 0.500000
vt 0.875000 0.500000
vt 0.375000 0.500000
vt 0.625000 0.250000
vt 0.375000 0.250000
vt 0.125000 0.750000
vt 0.125000 0.500000
vt 0.625000 0.750000
vt 0.875000 0.500000
vt 0.625000 0.500000
vt 0.625000 0.000000
vt 0.375000 0.250000
vt 0.375000 0.000000
vt 0.625000 0.250000
vt 0.375000 0.500000
vt 0.625000 0.500000
vt 0.375000 0.750000
vt 0.625000 0.750000
vt 0.375000 1.000000
vt 0.125000 0.750000
vt 0.125000 0.500000
vt 0.875000 0.500000
vt 0.625000 1.000000
vt 0.875000 0.750000
vt 0.375000 0.750000
vt 0.875000 0.750000
vt 0.625000 1.000000
vt 0.875000 0.750000
vt 0.625000 0.000000
vt 0.375000 0.000000
vt 0.000000 1.000000
vt 1.000000 0.000000
vt 0.000000 0.000000
vt 1.000000 1.000000
vn 0.0000 -0.2708 -0.9626
vn 0.0000 0.9626 -0.2708
vn 0.0000 0.2708 0.9626
vn 0.0000 -0.9626 0.2708
vn 1.0000 0.0000 0.0000
vn -1.0000 0.0000 0.0000
vn 0.0000 -1.0000 0.0000
vn 0.0000 0.4119 -0.9112
vn 0.0000 0.9112 0.4119
vn 0.0000 -0.4119 0.9112
vn 0.0000 -0.9112 -0.4119
vn 0.0000 0.0000 1.0000
vn 0.0000 0.0000 -1.0000
usemtl White
s off
f 2/1/1 3/2/1 1/3/1
f 7/4/2 5/5/2 3/2/2
f 6/6/3 4/7/3 5/5/3
f 8/8/4 1/9/4 4/7/4
f 5/5/5 1/10/5 3/11/5
f 7/12/6 8/8/6 6/6/6
f 15/13/7 12/14/7 11/15/7
f 9/16/6 15/13/6 11/17/6
f 14/18/5 12/19/5 16/20/5
f 18/21/8 19/22/8 17/23/8
f 20/24/9 23/25/9 19/22/9
f 24/26/10 21/27/10 23/25/10
f 22/28/11 17/29/11 21/27/11
f 23/25/5 17/30/5 19/31/5
f 20/32/6 22/28/6 24/26/6
f 2/1/1 7/4/1 3/2/1
f 7/4/2 6/6/2 5/5/2
f 6/6/3 8/8/3 4/7/3
f 8/8/4 2/33/4 1/9/4
f 5/5/5 4/7/5 1/10/5
f 7/12/6 2/34/6 8/8/6
f 15/13/7 16/20/7 12/14/7
f 9/16/6 13/35/6 15/13/6
f 14/18/5 10/36/5 12/19/5
f 18/21/8 20/24/8 19/22/8
f 20/24/9 24/26/9 23/25/9
f 24/26/10 22/28/10 21/27/10
f 22/28/11 18/37/11 17/29/11
f 23/25/5 21/27/5 17/30/5
f 20/32/6 18/38/6 22/28/6
usemtl Red
f 11/15/12 10/39/12 9/40/12
f 11/15/12 12/14/12 10/39/12
usemtl Green
f 13/35/13 16/20/13 15/13/13
f 13/35/13 14/18/13 16/20/13
usemtl light
f 27/41/5 26/42/5 25/43/5
f 27/41/5 28/44/5 26/42/5
